<?xml version="1.0" encoding="UTF-8" standalone="no"?>
<svg
   width="16"
   height="16"
   version="1.1"
   id="svg7"
   sodipodi:docname="config-users.svg"
   inkscape:version="1.1.1 (1:1.1+202109281949+c3084ef5ed)"
   xmlns:inkscape="http://www.inkscape.org/namespaces/inkscape"
   xmlns:sodipodi="http://sodipodi.sourceforge.net/DTD/sodipodi-0.dtd"
   xmlns="http://www.w3.org/2000/svg"
   xmlns:svg="http://www.w3.org/2000/svg"
   xmlns:rdf="http://www.w3.org/1999/02/22-rdf-syntax-ns#"
   xmlns:cc="http://creativecommons.org/ns#"
   xmlns:dc="http://purl.org/dc/elements/1.1/">
  <metadata
     id="metadata11">
    <rdf:RDF>
      <cc:Work
         rdf:about="">
        <dc:format>image/svg+xml</dc:format>
        <dc:type
           rdf:resource="http://purl.org/dc/dcmitype/StillImage" />
        <dc:title />
      </cc:Work>
    </rdf:RDF>
  </metadata>
  <sodipodi:namedview
     pagecolor="#ffffff"
     bordercolor="#666666"
     borderopacity="1"
     objecttolerance="10"
     gridtolerance="10"
     guidetolerance="10"
     inkscape:pageopacity="0"
     inkscape:pageshadow="2"
     inkscape:window-width="1920"
     inkscape:window-height="996"
     id="namedview9"
     showgrid="false"
     inkscape:zoom="25.78125"
     inkscape:cx="8.009697"
     inkscape:cy="8.2424242"
     inkscape:window-x="0"
     inkscape:window-y="0"
     inkscape:window-maximized="1"
     inkscape:current-layer="svg7"
     inkscape:pagecheckerboard="0" />
  <defs
     id="defs3">
    <style
       id="current-color-scheme"
       type="text/css">
   .ColorScheme-Text { color:#444444; } .ColorScheme-Highlight { color:#4285f4; } .ColorScheme-NeutralText { color:#ff9800; } .ColorScheme-PositiveText { color:#4caf50; } .ColorScheme-NegativeText { color:#f44336; }
  </style>
    <clipPath
       clipPathUnits="userSpaceOnUse"
       id="clipPath221">
      <g
         id="g227"
         style="display:none">
        <path
           id="path223"
           d="M 400,230 A 100,100 0 0 1 300,330 100,100 0 0 1 200,230 100,100 0 0 1 300,130 100,100 0 0 1 400,230 Z" />
        <path
           id="path225"
           clip-path="url(#circular-border)"
           d="M 490,550 A 190,190 0 0 1 300,740 190,190 0 0 1 110,550 190,190 0 0 1 300,360 190,190 0 0 1 490,550 Z" />
      </g>
      <path
         id="lpe_path-effect229"
         class="powerclip"
         d="M 15,15 H 585 V 585 H 15 Z M 400,230 A 100,100 0 0 0 300,130 100,100 0 0 0 200,230 100,100 0 0 0 300,330 100,100 0 0 0 400,230 Z m 90,320 A 190,190 0 0 0 300,360 190,190 0 0 0 110,550 190,190 0 0 0 300,740 190,190 0 0 0 490,550 Z" />
    </clipPath>
    <inkscape:path-effect
       effect="powerclip"
       id="path-effect229"
       is_visible="true"
       lpeversion="1"
       inverse="true"
       flatten="false"
       hide_clip="false"
       message="Use fill-rule evenodd on &lt;b&gt;fill and stroke&lt;/b&gt; dialog if no flatten result after convert clip to paths." />
  </defs>
  <path
     fill="#000000"
     id="circle9"
     clip-path="url(#clipPath221)"
     inkscape:path-effect="#path-effect229"
     sodipodi:type="arc"
     sodipodi:cx="300"
     sodipodi:cy="300"
     sodipodi:rx="280"
     sodipodi:ry="280"
     style="fill:#ffffff"
     transform="matrix(0.02599205,0,0,0.02627114,0.18632005,0.23043844)"
     d="M 580,300 A 280,280 0 0 1 300,580 280,280 0 0 1 20,300 280,280 0 0 1 300,20 280,280 0 0 1 580,300 Z" />
</svg>
