<?xml version="1.0" encoding="UTF-8" standalone="no"?>
<svg
   width="16"
   height="16"
   version="1.1"
   id="svg7"
   sodipodi:docname="blueman-desktop.svg"
   inkscape:version="1.1.1 (1:1.1+202109281949+c3084ef5ed)"
   xmlns:inkscape="http://www.inkscape.org/namespaces/inkscape"
   xmlns:sodipodi="http://sodipodi.sourceforge.net/DTD/sodipodi-0.dtd"
   xmlns="http://www.w3.org/2000/svg"
   xmlns:svg="http://www.w3.org/2000/svg"
   xmlns:rdf="http://www.w3.org/1999/02/22-rdf-syntax-ns#"
   xmlns:cc="http://creativecommons.org/ns#"
   xmlns:dc="http://purl.org/dc/elements/1.1/">
  <metadata
     id="metadata11">
    <rdf:RDF>
      <cc:Work
         rdf:about="">
        <dc:format>image/svg+xml</dc:format>
        <dc:type
           rdf:resource="http://purl.org/dc/dcmitype/StillImage" />
        <dc:title />
      </cc:Work>
    </rdf:RDF>
  </metadata>
  <sodipodi:namedview
     pagecolor="#ffffff"
     bordercolor="#666666"
     borderopacity="1"
     objecttolerance="10"
     gridtolerance="10"
     guidetolerance="10"
     inkscape:pageopacity="0"
     inkscape:pageshadow="2"
     inkscape:window-width="1920"
     inkscape:window-height="996"
     id="namedview9"
     showgrid="false"
     inkscape:zoom="51.5625"
     inkscape:cx="8.009697"
     inkscape:cy="9.5321212"
     inkscape:window-x="0"
     inkscape:window-y="0"
     inkscape:window-maximized="1"
     inkscape:current-layer="svg7"
     inkscape:document-rotation="0"
     inkscape:pagecheckerboard="0" />
  <defs
     id="defs3">
    <style
       id="current-color-scheme"
       type="text/css">
   .ColorScheme-Text { color:#444444; } .ColorScheme-Highlight { color:#4285f4; } .ColorScheme-NeutralText { color:#ff9800; } .ColorScheme-PositiveText { color:#4caf50; } .ColorScheme-NegativeText { color:#f44336; }
  </style>
  </defs>
  <path
     style="fill:#ffffff"
     class="ColorScheme-Text"
     d="M 1,1 C 0,1 0,2 0,2 V 12 C 0,13 1,13 1,13 H 6 C 6,13 5,13 5,14 V 15 H 11 V 14 C 11,13 10,13 10,13 H 15 C 16,13 16,12 16,12 V 2 C 16,2 16,1 15,1 Z M 2,3 H 14 V 11 H 2 Z"
     id="path5" />
  <ellipse
     style="opacity:1;fill:#ffffff"
     id="path48"
     cx="4.7896433"
     cy="7.0097857"
     rx="1.2202003"
     ry="1.0944028" />
  <ellipse
     style="fill:#ffffff"
     id="path48-3"
     cx="8.0433588"
     cy="7.0415792"
     rx="1.2202003"
     ry="1.0944028" />
  <ellipse
     style="fill:#ffffff"
     id="path48-6"
     cx="11.252145"
     cy="7.0357585"
     rx="1.2202003"
     ry="1.0944028" />
</svg>
