<?xml version="1.0" encoding="UTF-8" standalone="no"?>
<svg
   width="64"
   height="64"
   version="1"
   id="svg18"
   sodipodi:docname="org.xfce.xfdesktop.svg"
   inkscape:version="1.1.1 (1:1.1+202109281949+c3084ef5ed)"
   xmlns:inkscape="http://www.inkscape.org/namespaces/inkscape"
   xmlns:sodipodi="http://sodipodi.sourceforge.net/DTD/sodipodi-0.dtd"
   xmlns="http://www.w3.org/2000/svg"
   xmlns:svg="http://www.w3.org/2000/svg"
   xmlns:rdf="http://www.w3.org/1999/02/22-rdf-syntax-ns#"
   xmlns:cc="http://creativecommons.org/ns#"
   xmlns:dc="http://purl.org/dc/elements/1.1/">
  <metadata
     id="metadata24">
    <rdf:RDF>
      <cc:Work
         rdf:about="">
        <dc:format>image/svg+xml</dc:format>
        <dc:type
           rdf:resource="http://purl.org/dc/dcmitype/StillImage" />
      </cc:Work>
    </rdf:RDF>
  </metadata>
  <defs
     id="defs22">
    <inkscape:path-effect
       effect="powerclip"
       id="path-effect17"
       is_visible="true"
       lpeversion="1"
       inverse="true"
       flatten="false"
       hide_clip="false"
       message="Use fill-rule evenodd on &lt;b&gt;fill and stroke&lt;/b&gt; dialog if no flatten result after convert clip to paths." />
    <clipPath
       clipPathUnits="userSpaceOnUse"
       id="clipPath13">
      <path
         style="display:block;opacity:0.85;fill:#ffffff;stroke-width:1.135"
         d="m 35.241193,32.920834 c 0.11443,0.123085 0.41816,0.396312 0.911243,0.819697 6.921329,6.563367 10.248797,9.490432 9.981074,10.276933 -0.192423,0.578538 -0.747055,1.069111 -1.663909,1.471729 -0.915345,0.379195 -1.739985,0.55114 -2.473931,0.515838 -0.581097,-0.02794 -3.340835,-2.046028 -8.277888,-7.549999 -0.996198,-1.152925 -1.581294,-1.804111 -1.755289,-1.953564 -0.723361,0.717592 -1.804625,2.19383 -3.243801,4.428721 -1.852539,3.565867 -4.290101,6.856354 -5.686179,10.624069 -0.426415,1.319635 -1.511216,1.937544 -3.254402,1.853715 -0.917476,-0.04414 -1.481178,-0.329854 -1.691091,-0.857196 -0.209931,-0.527348 -0.124085,-1.346113 0.257533,-2.456313 0.732635,-2.221851 4.256033,-7.612842 10.570203,-16.172988 -0.03592,-0.377888 -0.940634,-1.749785 -2.714155,-4.115696 -1.773552,-2.365865 -3.18159,-4.157995 -4.224126,-5.078078 -1.129565,-0.994745 -1.599728,-1.757963 -1.410491,-2.289652 0.426394,-1.319611 1.771143,-1.925016 4.03425,-1.816215 1.100954,0.05298 3.063215,2.271451 5.886796,6.357113 1.206076,1.680307 1.996068,2.705776 2.369976,3.0764 0.651096,-0.556446 1.579249,-1.581579 2.78444,-3.075395 1.206733,-1.517202 2.041258,-2.746682 2.503593,-3.688444 0.457547,-0.871399 1.179302,-1.565539 2.165279,-2.082428 0.98592,-0.516825 1.922336,-0.753929 2.809256,-0.71131 1.376171,0.0662 1.874262,0.642682 1.494262,1.729408 -0.426436,1.319669 -2.907712,4.221551 -7.443836,8.705655 -1.183098,1.165716 -1.826027,1.828382 -1.928809,1.988"
         id="path15" />
    </clipPath>
  </defs>
  <sodipodi:namedview
     pagecolor="#ffffff"
     bordercolor="#666666"
     borderopacity="1"
     objecttolerance="10"
     gridtolerance="10"
     guidetolerance="10"
     inkscape:pageopacity="0"
     inkscape:pageshadow="2"
     inkscape:window-width="1516"
     inkscape:window-height="931"
     id="namedview20"
     showgrid="false"
     inkscape:zoom="12.890625"
     inkscape:cx="32.232727"
     inkscape:cy="24.281212"
     inkscape:window-x="254"
     inkscape:window-y="65"
     inkscape:window-maximized="0"
     inkscape:current-layer="svg18"
     inkscape:document-rotation="0"
     inkscape:pagecheckerboard="0" />
  <g
     color="#bebebe"
     fill="#474747"
     id="g6"
     transform="matrix(3.7974985,0,0,3.7974985,1.8477496,-0.19920147)"
     style="fill:#ffffff">
    <path
       d="m 12,1 c 1.662,0 3,1.338 3,3 v 6 c 0,1.662 -1.338,3 -3,3 H 4 C 2.338,13 1,11.662 1,10 V 4 C 1,2.338 2.338,1 4,1 Z m 0,2 H 4 C 3.446,3 3,3.446 3,4 v 6 c 0,0.554 0.446,1 1,1 h 8 c 0.554,0 1,-0.446 1,-1 V 4 C 13,3.446 12.554,3 12,3 Z M 8,14 c -5,0 -5,1 -5,1 0,1 1,1 1,1 h 8 c 1,0 1,-1 1,-1 0,0 0,-1 -5,-1 z"
       overflow="visible"
       id="path2"
       style="fill:#ffffff" />
    <path
       d="M 4.5,5 C 4.5,5 4,5 4,5.5 v 4 C 4,10 4.5,10 4.5,10 h 4 C 9,10 9,9.5 9,9.5 v -4 C 9,5 8.563,5 8.5,5 Z M 5,6.998 h 3 v 2 H 5 Z M 10.5,4 C 10.5,4 10,4 10,4.5 v 0.984 c 0,0 0,0.5 0.5,0.5 l 1,0.001 c 0,0 0.5,0 0.5,-0.5 V 4.501 c 0,0 0,-0.5 -0.5,-0.5 z"
       overflow="visible"
       id="path4-3"
       style="fill:#ffffff" />
  </g>
</svg>
