<?xml version="1.0" encoding="UTF-8" standalone="no"?>
<svg
   width="64"
   height="64"
   version="1"
   id="svg22"
   sodipodi:docname="steam_icon_1086940.svg"
   inkscape:version="1.1.1 (1:1.1+202109281949+c3084ef5ed)"
   xmlns:inkscape="http://www.inkscape.org/namespaces/inkscape"
   xmlns:sodipodi="http://sodipodi.sourceforge.net/DTD/sodipodi-0.dtd"
   xmlns="http://www.w3.org/2000/svg"
   xmlns:svg="http://www.w3.org/2000/svg"
   xmlns:rdf="http://www.w3.org/1999/02/22-rdf-syntax-ns#"
   xmlns:cc="http://creativecommons.org/ns#"
   xmlns:dc="http://purl.org/dc/elements/1.1/">
  <metadata
     id="metadata28">
    <rdf:RDF>
      <cc:Work
         rdf:about="">
        <dc:format>image/svg+xml</dc:format>
        <dc:type
           rdf:resource="http://purl.org/dc/dcmitype/StillImage" />
      </cc:Work>
    </rdf:RDF>
  </metadata>
  <defs
     id="defs26">
    <inkscape:path-effect
       effect="powerclip"
       id="path-effect15628"
       is_visible="true"
       lpeversion="1"
       inverse="true"
       flatten="false"
       hide_clip="false"
       message="Use fill-rule evenodd on &lt;b&gt;fill and stroke&lt;/b&gt; dialog if no flatten result after convert clip to paths." />
    <inkscape:path-effect
       effect="powerclip"
       id="path-effect22"
       is_visible="true"
       lpeversion="1"
       inverse="true"
       flatten="false"
       hide_clip="false"
       message="Use fill-rule evenodd on &lt;b&gt;fill and stroke&lt;/b&gt; dialog if no flatten result after convert clip to paths." />
    <clipPath
       clipPathUnits="userSpaceOnUse"
       id="clipPath14">
      <g
         id="g20"
         transform="scale(0.97514702,1.0254864)"
         style="display:block">
        <path
           d="m 18.061713,31.599368 v 8.338501 q 0,1.100682 0.466956,1.567638 0.466956,0.466956 1.534284,0.466956 2.434842,0 3.435462,-1.734408 0.66708,-1.16739 0.66708,-3.268692 0,-3.168631 -1.734408,-4.469437 -1.200744,-0.900558 -3.368754,-0.900558 z m 0,-8.471917 v 7.471297 q 3.201984,0 4.269312,-1.100682 0.933912,-0.967266 0.933912,-3.702294 0,-1.967887 -0.700434,-3.035215 -0.83385,-1.267452 -2.735028,-1.267452 -0.900558,0 -1.33416,0.33354 -0.433602,0.300186 -0.433602,1.300806 z m -8.2717928,19.91234 v -0.83385 q 1.7010538,-0.200124 2.1680098,-0.466956 0.767142,-0.466956 0.767142,-1.901178 V 23.694469 q 0,-1.50093 -0.867204,-2.00124 -0.633726,-0.366894 -2.0679478,-0.366894 v -0.83385 H 20.096307 q 3.068568,0 5.036455,0.700434 3.635586,1.300806 3.635586,4.636207 0,2.401488 -2.034594,3.735648 -0.867204,0.567018 -3.135277,1.267452 2.568259,0.50031 4.202605,1.767762 2.101302,1.634346 2.101302,4.235959 0,2.468196 -2.034594,4.135896 -2.50155,2.067948 -7.337881,2.067948 z"
           id="path16" />
        <path
           d="m 54.662591,33.212969 v 0.815254 q -1.284522,0.16305 -1.651528,0.326103 -0.978682,0.456541 -0.978682,2.674035 v 4.141494 q -1.070436,0.815255 -3.608895,1.402238 -2.507875,0.619593 -4.648745,0.619593 -5.382756,0 -8.410558,-3.58712 -2.660794,-3.163188 -2.660794,-7.859057 0,-4.924138 2.936049,-8.250377 3.058386,-3.456679 7.890632,-3.456679 1.376274,0 2.874882,0.521763 1.498609,0.521763 3.027801,1.076136 0.55051,0 0.886932,-0.423933 0.214087,-0.293491 0.519925,-1.076136 h 0.825764 v 7.630785 h -0.764596 q -0.948099,-2.510985 -2.660794,-4.369766 -2.110286,-2.282713 -4.465243,-2.282713 -3.088968,0 -4.495824,3.163188 -1.162186,2.608816 -1.162186,7.402513 0,5.021969 1.529192,7.728615 1.529192,2.706645 4.434657,2.706645 1.896198,0 2.599627,-0.652203 0.581093,-0.521763 0.581093,-1.728341 v -3.424069 q 0,-1.467459 -0.672845,-1.858782 -0.642261,-0.423932 -2.416123,-0.423932 v -0.815254 z"
           id="path18"
           style="stroke-width:0.808465" />
      </g>
    </clipPath>
    <clipPath
       clipPathUnits="userSpaceOnUse"
       id="clipPath15624">
      <path
         id="path15626"
         d="m 43.327432,44.711216 q 0.902196,0.0322 0.902196,0.869252 0,0.128777 -0.03222,0.225361 0,0.09658 0,0.128778 -1.933278,2.897506 -3.802114,2.897506 -1.611065,0 -3.093245,-1.93167 -1.449958,-1.931671 -3.061023,-5.376483 -0.257771,-0.515112 -0.354435,-0.772668 -1.22441,-2.607755 -2.062163,-4.21748 -0.837754,-1.64192 -1.643287,-2.736533 V 45.3873 H 29.891149 V 33.443139 q -0.998861,-1.223391 -1.997721,-1.255585 -0.451099,2.414588 -0.451099,4.668203 0,1.416558 0.161107,2.382393 0.193327,0.93364 0.418877,1.480948 0.225549,0.515111 0.225549,0.418528 0,0.09658 -0.74109,0.418528 -0.708869,0.321945 -1.578844,2.157033 -0.869975,1.835086 -1.385516,5.634037 V 32.09097 q -1.417737,0.09658 -2.384376,0.740474 -0.934418,0.611695 -0.934418,1.867281 0,0.547307 0.193328,1.223391 0.09666,0.289751 0.09666,0.515112 0,0.450723 -0.322213,0.450723 -0.193328,0 -0.257771,-0.193167 -0.06445,-0.193166 -0.128885,-0.64389 -0.06445,-0.708279 0.128885,-1.738503 0.22555,-1.062418 1.063303,-2.221421 0.837755,-1.191196 2.545483,-1.963865 v -7.275957 q 0,-0.257557 -0.225549,-0.901447 -0.225549,-0.676084 -1.031082,-1.319975 -0.77331,-0.64389 -2.287712,-0.64389 -0.773311,0 -1.22441,0.450723 -0.418877,0.450724 -0.418877,1.159003 0,1.030223 0.869976,2.157031 0.902196,1.094614 2.545483,1.738504 0,1.706308 -0.612205,4.088702 -0.612205,2.382393 -2.996581,3.283839 -0.515542,0.193167 -1.256631,0.193167 -0.676647,0 -0.934418,-0.193167 -0.289991,-0.193167 -0.354434,-0.386334 -0.06445,-0.193167 0.06445,-0.28975 0.09666,-0.09658 0.289991,-0.09658 0.483319,0 0.837754,0.482918 0.193327,0.225361 0.612205,0.225361 0.773311,0 1.611065,-0.611695 0.837754,-0.64389 0.869975,-1.448754 0.09666,-1.062417 -0.805533,-2.157031 -0.869974,-1.094613 -2.48104,-2.028254 -0.934417,-0.579501 -0.934417,-1.480947 0,-0.611695 0.354433,-1.28778 0.386656,-0.676085 1.031082,-1.577531 l 0.386656,-0.579501 q 1.031082,-1.545336 2.609925,-2.607755 1.611066,-1.094613 3.093246,-1.094613 0.225549,0 0.612205,0.06439 3.125466,0.515112 3.125466,3.863341 v 3.605784 q 0.547761,-1.641919 1.997721,-3.283839 v -3.348229 h 0.289991 v 3.026284 q 1.353295,-1.416559 3.028803,-2.382394 0.322213,1.126808 0.741089,2.157032 0.451099,0.998029 1.095525,2.221421 0.708869,1.319975 1.063303,2.253616 0.354434,0.901445 0.354434,1.738502 0,1.159003 -0.805533,2.318005 -0.805532,1.159002 -2.706588,2.543365 0.386655,0.450724 1.25663,1.99606 0.902197,1.513142 1.868836,3.251645 l 0.579983,1.030224 q 2.126606,3.734563 3.673229,5.988178 1.546622,2.253616 2.352155,2.253616 0.51554,0 0.644426,-1.062419 -0.515541,-0.482918 -0.515541,-0.869252 0,-0.193167 0.09666,-0.321945 0.128885,-0.128778 0.25777,-0.193167 0.128886,-0.06439 0.161107,-0.06439 z M 30.18114,29.708577 q 1.321074,0.804862 2.448819,2.478977 1.22441,-1.384364 1.22441,-3.090673 0,-1.28778 -0.579983,-2.478977 -0.547763,-1.191196 -1.546624,-2.639949 -0.579983,-0.869252 -0.837753,-1.35217 -0.225549,-0.482917 -0.193328,-0.772667 L 30.18114,22.36823 v 2.800922 q 0.06445,0.547306 0.451099,1.062418 0.418876,0.515113 0.805532,0.740474 -0.386656,0.160972 -0.837754,0.804863 -0.418877,0.64389 -0.418877,1.641919 z m -2.287712,-0.837058 q 0.966639,0.128779 1.997721,0.643891 v -0.09658 q 0,-1.706308 -1.22441,-2.511171 0.612205,-0.321945 0.869975,-0.740474 0.289992,-0.418528 0.354435,-0.998029 v -2.478977 q -1.22441,1.416558 -1.997721,3.734563 z m 5.189131,24.394205 c 0.696055,-0.04336 1.59249,-0.12675 2.119805,-0.196796 3.958374,-0.543692 7.716368,-2.088042 10.841586,-4.459604 1.479995,-1.124074 2.833436,-2.441608 3.951342,-3.849202 4.316949,-5.443585 5.635235,-12.611639 3.511915,-19.109251 -0.805033,-2.464957 -2.137381,-4.879881 -3.793149,-6.871192 -0.762848,-0.920606 -2.13035,-2.288173 -2.974054,-2.971957 -2.99163,-2.434937 -6.419174,-4.035991 -10.2299,-4.779815 -4.295856,-0.837217 -8.820214,-0.450296 -12.87702,1.100725 -2.671728,1.024008 -4.998943,2.444944 -7.160932,4.376215 -0.629262,0.56037 -2.053011,1.91793 -1.968641,1.871233 0.02812,-0.01335 0.576531,-0.373579 1.216339,-0.797192 0.639808,-0.423612 1.420234,-0.920606 1.740138,-1.100725 2.443224,-1.397587 5.10792,-2.221462 7.983542,-2.471627 0.748786,-0.06671 2.341276,-0.07338 3.06897,-0.01667 3.712294,0.293527 7.220693,1.584377 10.089285,3.719116 0.889403,0.660435 2.038949,1.711127 2.720942,2.48497 2.520564,2.86522 3.965406,6.130704 4.348587,9.843148 0.08436,0.797193 0.08436,2.368227 0,3.168754 -0.383181,3.712445 -1.813962,6.984601 -4.309918,9.839814 -0.435913,0.500329 -1.585458,1.597719 -2.140896,2.048015 -4.591152,3.702439 -10.725577,5.090019 -16.543614,3.742465 -2.172536,-0.507001 -4.148207,-1.32754 -5.983262,-2.491641 -0.914011,-0.580383 -1.434295,-0.97731 -2.664695,-2.038009 -1.012444,-0.870573 -1.251494,-1.070705 -1.191732,-0.993987 0.495677,0.620407 1.764746,2.151416 2.031919,2.451613 1.610067,1.797851 3.511915,3.325525 5.642265,4.526315 2.879138,1.621067 6.08521,2.601713 9.530331,2.911917 0.548407,0.05003 2.562749,0.09006 3.040847,0.06337 z"
         style="display:none" />
      <path
         id="lpe_path-effect15628"
         class="powerclip"
         d="M -1.9320965,-2.3638725 H 66.149641 V 66.558743 H -1.9320965 Z m 45.2595285,47.0750885 -1e-6,4e-6 q -0.03222,0 -0.161107,0.06439 -0.128885,0.06439 -0.25777,0.193167 -0.09666,0.128778 -0.09666,0.321945 0,0.386334 0.515541,0.869252 -0.128886,1.062419 -0.644426,1.062419 -0.805533,0 -2.352155,-2.253616 -1.546623,-2.253615 -3.673229,-5.988178 l -0.579983,-1.030224 q -0.966639,-1.738503 -1.868836,-3.251645 -0.869975,-1.545336 -1.25663,-1.99606 1.901056,-1.384363 2.706588,-2.543365 0.805533,-1.159002 0.805533,-2.318005 0,-0.837057 -0.354434,-1.738502 -0.354434,-0.933641 -1.063303,-2.253616 -0.644426,-1.223392 -1.095525,-2.221421 -0.418876,-1.030224 -0.741089,-2.157032 -1.675508,0.965835 -3.028803,2.382394 v -3.026284 h -0.289991 v 3.348229 q -1.44996,1.64192 -1.997721,3.283839 v -3.605784 q 0,-3.348229 -3.125466,-3.863341 -0.386656,-0.06439 -0.612205,-0.06439 -1.48218,0 -3.093246,1.094613 -1.578843,1.062419 -2.609925,2.607755 l -0.386656,0.579501 q -0.644426,0.901446 -1.031082,1.577531 -0.354433,0.676085 -0.354433,1.28778 0,0.901446 0.934417,1.480947 1.611066,0.933641 2.48104,2.028254 0.902193,1.094614 0.805533,2.157031 -0.03222,0.804864 -0.869975,1.448754 -0.837754,0.611695 -1.611065,0.611695 -0.418878,0 -0.612205,-0.225361 -0.354435,-0.482918 -0.837754,-0.482918 -0.193331,0 -0.289991,0.09658 -0.1289,0.09658 -0.06445,0.28975 0.06444,0.193167 0.354434,0.386334 0.257771,0.193167 0.934418,0.193167 0.741089,0 1.256631,-0.193167 2.384376,-0.901446 2.996581,-3.283839 0.612205,-2.382394 0.612205,-4.088702 -1.643287,-0.64389 -2.545483,-1.738504 -0.869976,-1.126808 -0.869976,-2.157031 0,-0.708279 0.418877,-1.159003 0.451099,-0.450723 1.22441,-0.450723 1.514402,0 2.287712,0.64389 0.805533,0.643891 1.031082,1.319975 0.225549,0.64389 0.225549,0.901447 v 7.275957 q -1.707728,0.772669 -2.545483,1.963865 -0.837753,1.159003 -1.063303,2.221421 -0.193335,1.030224 -0.128885,1.738503 0.06443,0.450724 0.128885,0.64389 0.06444,0.193167 0.257771,0.193167 0.322213,0 0.322213,-0.450723 0,-0.225361 -0.09666,-0.515112 -0.193328,-0.676084 -0.193328,-1.223391 0,-1.255586 0.934418,-1.867281 0.966639,-0.643894 2.384376,-0.740474 v 17.256254 q 0.515541,-3.798951 1.385516,-5.634037 0.869975,-1.835088 1.578844,-2.157033 0.74109,-0.321948 0.74109,-0.418528 0,0.09658 -0.225549,-0.418528 -0.22555,-0.547308 -0.418877,-1.480948 -0.161107,-0.965835 -0.161107,-2.382393 0,-2.253615 0.451099,-4.668203 0.99886,0.03219 1.997721,1.255585 V 45.3873 h 0.289992 V 33.797279 q 0.805533,1.094613 1.643287,2.736533 0.837753,1.609725 2.062163,4.21748 0.09666,0.257556 0.354435,0.772668 1.611065,3.444812 3.061023,5.376483 1.48218,1.93167 3.093245,1.93167 1.868836,0 3.802114,-2.897506 0,-0.0322 0,-0.128778 0.03222,-0.09658 0.03222,-0.225361 0,-0.837052 -0.902196,-0.869252 z M 30.18114,29.708577 q 1.321074,0.804862 2.448819,2.478977 1.22441,-1.384364 1.22441,-3.090673 0,-1.28778 -0.579983,-2.478977 -0.547763,-1.191196 -1.546624,-2.639949 -0.579983,-0.869252 -0.837753,-1.35217 -0.225549,-0.482917 -0.193328,-0.772667 L 30.18114,22.36823 v 2.800922 q 0.06445,0.547306 0.451099,1.062418 0.418876,0.515113 0.805532,0.740474 -0.386656,0.160972 -0.837754,0.804863 -0.418877,0.64389 -0.418877,1.641919 z m -2.287712,-0.837058 q 0.966639,0.128779 1.997721,0.643891 v -0.09658 q 0,-1.706308 -1.22441,-2.511171 0.612205,-0.321945 0.869975,-0.740474 0.289992,-0.418528 0.354435,-0.998029 v -2.478977 q -1.22441,1.416558 -1.997721,3.734563 z m 5.189131,24.394205 c 0.696055,-0.04336 1.59249,-0.12675 2.119805,-0.196796 3.958374,-0.543692 7.716368,-2.088042 10.841586,-4.459604 1.479995,-1.124074 2.833436,-2.441608 3.951342,-3.849202 4.316949,-5.443585 5.635235,-12.611639 3.511915,-19.109251 -0.805033,-2.464957 -2.137381,-4.879881 -3.793149,-6.871192 -0.762848,-0.920606 -2.13035,-2.288173 -2.974054,-2.971957 -2.99163,-2.434937 -6.419174,-4.035991 -10.2299,-4.779815 -4.295856,-0.837217 -8.820214,-0.450296 -12.87702,1.100725 -2.671728,1.024008 -4.998943,2.444944 -7.160932,4.376215 -0.629262,0.56037 -2.053011,1.91793 -1.968641,1.871233 0.02812,-0.01335 0.576531,-0.373579 1.216339,-0.797192 0.639808,-0.423612 1.420234,-0.920606 1.740138,-1.100725 2.443224,-1.397587 5.10792,-2.221462 7.983542,-2.471627 0.748786,-0.06671 2.341276,-0.07338 3.06897,-0.01667 3.712294,0.293527 7.220693,1.584377 10.089285,3.719116 0.889403,0.660435 2.038949,1.711127 2.720942,2.48497 2.520564,2.86522 3.965406,6.130704 4.348587,9.843148 0.08436,0.797193 0.08436,2.368227 0,3.168754 -0.383181,3.712445 -1.813962,6.984601 -4.309918,9.839814 -0.435913,0.500329 -1.585458,1.597719 -2.140896,2.048015 -4.591152,3.702439 -10.725577,5.090019 -16.543614,3.742465 -2.172536,-0.507001 -4.148207,-1.32754 -5.983262,-2.491641 -0.914011,-0.580383 -1.434295,-0.97731 -2.664695,-2.038009 -1.012444,-0.870573 -1.251494,-1.070705 -1.191732,-0.993987 0.495677,0.620407 1.764746,2.151416 2.031919,2.451613 1.610067,1.797851 3.511915,3.325525 5.642265,4.526315 2.879138,1.621067 6.08521,2.601713 9.530331,2.911917 0.548407,0.05003 2.562749,0.09006 3.040847,0.06337 z" />
    </clipPath>
  </defs>
  <sodipodi:namedview
     pagecolor="#ffffff"
     bordercolor="#666666"
     borderopacity="1"
     objecttolerance="10"
     gridtolerance="10"
     guidetolerance="10"
     inkscape:pageopacity="0"
     inkscape:pageshadow="2"
     inkscape:window-width="1355"
     inkscape:window-height="912"
     id="namedview24"
     showgrid="false"
     inkscape:zoom="9.1150484"
     inkscape:cx="59.132983"
     inkscape:cy="35.710178"
     inkscape:window-x="476"
     inkscape:window-y="72"
     inkscape:window-maximized="0"
     inkscape:current-layer="svg22"
     inkscape:pagecheckerboard="0" />
  <path
     style="opacity:1;fill:#ffffff;stroke-width:1.22257"
     id="path196"
     clip-path="url(#clipPath15624)"
     inkscape:path-effect="#path-effect15628"
     sodipodi:type="arc"
     sodipodi:cx="32.108772"
     sodipodi:cy="32.097435"
     sodipodi:rx="29.040869"
     sodipodi:ry="29.461308"
     d="M 61.149641,32.097435 A 29.040869,29.461308 0 0 1 32.108772,61.558743 29.040869,29.461308 0 0 1 3.0679035,32.097435 29.040869,29.461308 0 0 1 32.108772,2.6361275 29.040869,29.461308 0 0 1 61.149641,32.097435 Z" />
  <g
     aria-label="BG"
     transform="scale(0.97514702,1.0254864)"
     id="text6568"
     style="font-size:34.1545px;line-height:1.25;font-family:'padmaa-Bold.1.1';-inkscape-font-specification:'padmaa-Bold.1.1';opacity:0.85;fill:#ffffff;stroke-width:0.85386" />
  <g
     transform="matrix(-0.00351543,0,0,0.00333553,54.509105,10.590953)"
     fill="#000000"
     stroke="none"
     id="g6" />
  <g
     aria-label="R"
     transform="scale(1.0004161,0.99958407)"
     id="text6564"
     style="font-size:32.2079px;line-height:1.25;font-family:Lordish;-inkscape-font-specification:Lordish;stroke-width:0.805197" />
</svg>
