<?xml version="1.0" encoding="UTF-8" standalone="no"?>
<svg
   width="64"
   height="64"
   version="1.1"
   viewBox="0 0 16.933 16.933"
   id="svg20"
   sodipodi:docname="budgiewprviews.svg"
   inkscape:version="1.1.1 (1:1.1+202109281949+c3084ef5ed)"
   xmlns:inkscape="http://www.inkscape.org/namespaces/inkscape"
   xmlns:sodipodi="http://sodipodi.sourceforge.net/DTD/sodipodi-0.dtd"
   xmlns="http://www.w3.org/2000/svg"
   xmlns:svg="http://www.w3.org/2000/svg">
  <defs
     id="defs24" />
  <sodipodi:namedview
     id="namedview22"
     pagecolor="#ffffff"
     bordercolor="#666666"
     borderopacity="1.0"
     inkscape:pageshadow="2"
     inkscape:pageopacity="0.0"
     inkscape:pagecheckerboard="0"
     showgrid="false"
     inkscape:zoom="12.859375"
     inkscape:cx="10.73147"
     inkscape:cy="44.442284"
     inkscape:window-width="1920"
     inkscape:window-height="996"
     inkscape:window-x="0"
     inkscape:window-y="0"
     inkscape:window-maximized="1"
     inkscape:current-layer="svg20" />
  <g
     transform="matrix(0.36540861,0,0,0.36540862,0.36740425,-3.6255042)"
     fill="#fff"
     id="g18"
     style="fill:#ffffff">
    <g
       transform="matrix(0.71829,0,0,0.71829,2.7912,12.923)"
       id="g14"
       style="fill:#ffffff">
      <rect
         x="0.52433997"
         y="14.445"
         width="16.695"
         height="12.328"
         ry="2.6356001"
         id="rect6"
         style="fill:#ffffff" />
      <rect
         x="19.650999"
         y="14.445"
         width="16.695"
         height="12.328"
         ry="2.6356001"
         id="rect8"
         style="fill:#ffffff" />
      <rect
         x="0.30502999"
         y="29.384001"
         width="16.695"
         height="12.328"
         ry="2.6356001"
         id="rect10"
         style="fill:#ffffff" />
      <rect
         x="19.431999"
         y="29.384001"
         width="16.695"
         height="12.328"
         ry="2.6356001"
         id="rect12"
         style="fill:#ffffff" />
    </g>
    <path
       d="m 22.644,14.434 a 18.658,18.658 0 0 0 -12.471,4.8459 h 6.0381 a 15.27,15.27 0 0 1 6.436,-1.4584 15.27,15.27 0 0 1 15.284,15.253 v 0.01745 a 15.27,15.27 0 0 1 -15.266,15.27 15.27,15.27 0 0 1 -6.4721,-1.4591 h -6.0433 a 18.658,18.658 0 0 0 12.516,4.8462 18.658,18.658 0 0 0 18.653,-18.657 v -0.02116 a 18.658,18.658 0 0 0 -18.674,-18.637 z"
       id="path16"
       style="fill:#ffffff" />
  </g>
</svg>
