<?xml version="1.0" encoding="UTF-8" standalone="no"?>
<svg
   id="Layer_1"
   x="0px"
   y="0px"
   width="400px"
   height="400px"
   viewBox="0 0 400 400"
   style="enable-background:new 0 0 400 400;"
   xml:space="preserve"
   version="1.1"
   sodipodi:docname="livepatch.svg"
   inkscape:version="1.1.1 (1:1.1+202109281949+c3084ef5ed)"
   xmlns:inkscape="http://www.inkscape.org/namespaces/inkscape"
   xmlns:sodipodi="http://sodipodi.sourceforge.net/DTD/sodipodi-0.dtd"
   xmlns="http://www.w3.org/2000/svg"
   xmlns:svg="http://www.w3.org/2000/svg"><defs
   id="defs9" /><sodipodi:namedview
   id="namedview7"
   pagecolor="#ffffff"
   bordercolor="#666666"
   borderopacity="1.0"
   inkscape:pageshadow="2"
   inkscape:pageopacity="0.0"
   inkscape:pagecheckerboard="0"
   showgrid="false"
   inkscape:zoom="2.0575"
   inkscape:cx="200.24301"
   inkscape:cy="200"
   inkscape:window-width="1920"
   inkscape:window-height="996"
   inkscape:window-x="0"
   inkscape:window-y="0"
   inkscape:window-maximized="1"
   inkscape:current-layer="Layer_1" /> <style
   type="text/css"
   id="style2"> .st0{fill:#E95420;} </style> <path
   class="st0"
   d="m 200,38 c -89.343,0 -162,72.657 -162,162 0,89.343 72.657,162 162,162 89.343,0 162,-72.657 162,-162 C 362,110.657 289.343,38 200,38 Z m 0,263.25 c -52.326,0 -95.499,-39.933 -100.764,-90.882 v -0.081 H 69.428 c -4.131,0 -7.776,-2.43 -9.315,-6.237 -1.539,-3.807 -0.729,-8.181 2.187,-11.016 l 49.572,-49.653 c 3.969,-3.969 10.368,-3.969 14.337,0 l 49.086,49.086 c 2.106,1.863 3.483,4.617 3.483,7.695 0,5.589 -4.536,10.125 -10.125,10.125 h -28.512 c 4.86,28.674 29.889,50.544 59.859,50.544 33.534,0 60.75,-27.216 60.75,-60.75 0,-33.453 -27.216,-60.75 -60.75,-60.75 -11.178,0 -20.25,-9.072 -20.25,-20.25 0,-11.178 9.072,-20.25 20.25,-20.25 55.809,0 101.25,45.441 101.25,101.25 0,55.728 -45.441,101.169 -101.25,101.169 z"
   id="path4"
   style="stroke-width:0.81;fill:#ffffff" /> </svg>
