<?xml version="1.0" encoding="UTF-8" standalone="no"?>
<svg
   width="64"
   height="64"
   version="1.1"
   viewBox="0 0 16.933 16.933"
   id="svg56"
   sodipodi:docname="org.xfce.workspaces.svg"
   inkscape:version="1.1.1 (1:1.1+202109281949+c3084ef5ed)"
   xmlns:inkscape="http://www.inkscape.org/namespaces/inkscape"
   xmlns:sodipodi="http://sodipodi.sourceforge.net/DTD/sodipodi-0.dtd"
   xmlns:xlink="http://www.w3.org/1999/xlink"
   xmlns="http://www.w3.org/2000/svg"
   xmlns:svg="http://www.w3.org/2000/svg"
   xmlns:rdf="http://www.w3.org/1999/02/22-rdf-syntax-ns#"
   xmlns:cc="http://creativecommons.org/ns#"
   xmlns:dc="http://purl.org/dc/elements/1.1/">
  <sodipodi:namedview
     pagecolor="#ffffff"
     bordercolor="#666666"
     borderopacity="1"
     objecttolerance="10"
     gridtolerance="10"
     guidetolerance="10"
     inkscape:pageopacity="0"
     inkscape:pageshadow="2"
     inkscape:window-width="1567"
     inkscape:window-height="738"
     id="namedview58"
     showgrid="false"
     inkscape:zoom="12.890625"
     inkscape:cx="24.164848"
     inkscape:cy="32.698182"
     inkscape:window-x="220"
     inkscape:window-y="182"
     inkscape:window-maximized="0"
     inkscape:current-layer="svg56"
     inkscape:document-rotation="0"
     inkscape:pagecheckerboard="0" />
  <defs
     id="defs18">
    <inkscape:path-effect
       effect="powerclip"
       id="path-effect42"
       is_visible="true"
       lpeversion="1"
       inverse="true"
       flatten="false"
       hide_clip="false"
       message="Use fill-rule evenodd on &lt;b&gt;fill and stroke&lt;/b&gt; dialog if no flatten result after convert clip to paths." />
    <linearGradient
       id="linearGradient1064"
       x1="-15.961"
       x2="-.30109"
       y1="-43.254"
       y2="-54.196"
       gradientTransform="matrix(1 0 0 1.1 16.669 62.435)"
       gradientUnits="userSpaceOnUse">
      <stop
         stop-color="#3c3c3c"
         offset="0"
         id="stop2" />
      <stop
         stop-color="#646464"
         offset="1"
         id="stop4" />
    </linearGradient>
    <linearGradient
       id="linearGradient992"
       x1="-16.14"
       x2="-1.0699"
       y1="-55.616"
       y2="-44.835"
       gradientTransform="matrix(1 0 0 1.1 16.669 62.435)"
       gradientUnits="userSpaceOnUse">
      <stop
         stop-color="#3c3c3c"
         offset="0"
         id="stop7" />
      <stop
         stop-color="#646464"
         offset="1"
         id="stop9" />
    </linearGradient>
    <linearGradient
       id="linearGradient1006"
       x1=".52939"
       x2="16.217"
       y1="2.7784"
       y2="14.872"
       gradientTransform="matrix(1,0,0,1.1,16.669,62.435)"
       gradientUnits="userSpaceOnUse">
      <stop
         stop-color="#3c3c3c"
         offset="0"
         id="stop12" />
      <stop
         stop-color="#646464"
         offset="1"
         id="stop14" />
    </linearGradient>
    <linearGradient
       id="linearGradient939"
       x1="-16.14"
       x2="-1.0699"
       y1="-55.616"
       y2="-44.835"
       gradientTransform="matrix(1,0,0,1.1,16.669,62.435)"
       gradientUnits="userSpaceOnUse"
       xlink:href="#linearGradient992" />
    <clipPath
       clipPathUnits="userSpaceOnUse"
       id="clipPath38">
      <rect
         x="0.97311002"
         y="4.6963"
         width="14.987"
         height="9.9216995"
         ry="0.29919001"
         fill="#fffffc"
         id="rect40"
         style="display:none;opacity:0.85;fill:#f2f2f2;stroke-width:0.999999" />
      <path
         id="lpe_path-effect42"
         style="opacity:0.85;fill:#f2f2f2;stroke-width:0.999999"
         class="powerclip"
         d="M -4.4709,-2.221974 H 21.40339 V 20.0813 H -4.4709 Z M 1.2723,4.6963 c -0.1657512,0 -0.29918998,0.1334388 -0.29918998,0.29919 v 9.32332 c 0,0.165751 0.13343878,0.29919 0.29918998,0.29919 h 14.38862 c 0.165752,0 0.29919,-0.133439 0.29919,-0.29919 V 4.99549 c 0,-0.1657512 -0.133438,-0.29919 -0.29919,-0.29919 z" />
    </clipPath>
  </defs>
  <metadata
     id="metadata20">
    <rdf:RDF>
      <cc:Work
         rdf:about="">
        <dc:format>image/svg+xml</dc:format>
        <dc:type
           rdf:resource="http://purl.org/dc/dcmitype/StillImage" />
      </cc:Work>
    </rdf:RDF>
  </metadata>
  <g
     fill="#5e4aa6"
     stroke-width=".26458"
     id="g30">
    <circle
       cx="-330.35"
       cy="-328.38"
       r="0"
       id="circle22" />
    <circle
       cx="-312.11"
       cy="-326.25"
       r="0"
       id="circle24" />
    <circle
       cx="-306.02"
       cy="-333.07"
       r="0"
       id="circle26" />
    <circle
       cx="-308.84"
       cy="-326.01"
       r="0"
       id="circle28" />
  </g>
  <g
     transform="translate(.000295 -.00032978)"
     fill="#5e4aa6"
     stroke-width=".26458"
     id="g42">
    <circle
       cx="-330.35"
       cy="-328.38"
       r="0"
       id="circle32" />
    <circle
       cx="-312.11"
       cy="-326.25"
       r="0"
       id="circle34" />
    <circle
       cx="-306.02"
       cy="-333.07"
       r="0"
       id="circle36" />
    <circle
       cx="-308.84"
       cy="-326.01"
       r="0"
       id="circle38" />
    <circle
       cx="-328.8"
       cy="-330.45"
       r="0"
       id="circle40" />
  </g>
  <path
     style="fill:#ffffff;stroke-width:0.913397"
     d="m 2.1323999,2.7855627 c -0.5060211,0 -0.9133956,0.4073743 -0.9133956,0.9133954 v 5.4803706 c 0,0.5060264 0.4073745,0.9133973 0.9133956,0.9133973 h 7.307164 c 0.5060206,0 0.9133941,-0.4073709 0.9133941,-0.9133973 V 3.6989581 c 0,-0.5060211 -0.4073735,-0.9133954 -0.9133941,-0.9133954 z M 3.0457953,4.6123535 H 8.5261681 V 8.2659328 H 3.0457953 Z m 8.2205587,0 v 4.5669752 c 0,0.9962483 -0.830549,1.8267933 -1.8267903,1.8267933 H 3.9591912 v 2.283489 c 0,0.759028 0.6110613,1.370094 1.3700927,1.370094 H 14.46324 c 0.759029,0 1.370094,-0.611066 1.370094,-1.370094 V 5.9824472 c 0,-0.7590321 -0.611065,-1.3700937 -1.370094,-1.3700937 z"
     id="path2" />
</svg>
