<?xml version="1.0" encoding="UTF-8" standalone="no"?>
<svg
   width="64"
   height="64"
   version="1.1"
   viewBox="0 0 16.933 16.933"
   id="svg56"
   sodipodi:docname="org.xfce.screenshooter.svg"
   inkscape:version="1.1.1 (1:1.1+202109281949+c3084ef5ed)"
   xmlns:inkscape="http://www.inkscape.org/namespaces/inkscape"
   xmlns:sodipodi="http://sodipodi.sourceforge.net/DTD/sodipodi-0.dtd"
   xmlns:xlink="http://www.w3.org/1999/xlink"
   xmlns="http://www.w3.org/2000/svg"
   xmlns:svg="http://www.w3.org/2000/svg"
   xmlns:rdf="http://www.w3.org/1999/02/22-rdf-syntax-ns#"
   xmlns:cc="http://creativecommons.org/ns#"
   xmlns:dc="http://purl.org/dc/elements/1.1/">
  <sodipodi:namedview
     pagecolor="#ffffff"
     bordercolor="#666666"
     borderopacity="1"
     objecttolerance="10"
     gridtolerance="10"
     guidetolerance="10"
     inkscape:pageopacity="0"
     inkscape:pageshadow="2"
     inkscape:window-width="1920"
     inkscape:window-height="996"
     id="namedview58"
     showgrid="false"
     inkscape:zoom="12.890625"
     inkscape:cx="32.193939"
     inkscape:cy="38.206061"
     inkscape:window-x="0"
     inkscape:window-y="0"
     inkscape:window-maximized="1"
     inkscape:current-layer="svg56"
     inkscape:document-rotation="0"
     inkscape:pagecheckerboard="0" />
  <defs
     id="defs18">
    <inkscape:path-effect
       effect="powerclip"
       id="path-effect42"
       is_visible="true"
       lpeversion="1"
       inverse="true"
       flatten="false"
       hide_clip="false"
       message="Use fill-rule evenodd on &lt;b&gt;fill and stroke&lt;/b&gt; dialog if no flatten result after convert clip to paths." />
    <linearGradient
       id="linearGradient1064"
       x1="-15.961"
       x2="-.30109"
       y1="-43.254"
       y2="-54.196"
       gradientTransform="matrix(1 0 0 1.1 16.669 62.435)"
       gradientUnits="userSpaceOnUse">
      <stop
         stop-color="#3c3c3c"
         offset="0"
         id="stop2" />
      <stop
         stop-color="#646464"
         offset="1"
         id="stop4" />
    </linearGradient>
    <linearGradient
       id="linearGradient992"
       x1="-16.14"
       x2="-1.0699"
       y1="-55.616"
       y2="-44.835"
       gradientTransform="matrix(1 0 0 1.1 16.669 62.435)"
       gradientUnits="userSpaceOnUse">
      <stop
         stop-color="#3c3c3c"
         offset="0"
         id="stop7" />
      <stop
         stop-color="#646464"
         offset="1"
         id="stop9" />
    </linearGradient>
    <linearGradient
       id="linearGradient1006"
       x1=".52939"
       x2="16.217"
       y1="2.7784"
       y2="14.872"
       gradientTransform="matrix(1,0,0,1.1,16.669,62.435)"
       gradientUnits="userSpaceOnUse">
      <stop
         stop-color="#3c3c3c"
         offset="0"
         id="stop12" />
      <stop
         stop-color="#646464"
         offset="1"
         id="stop14" />
    </linearGradient>
    <linearGradient
       id="linearGradient939"
       x1="-16.14"
       x2="-1.0699"
       y1="-55.616"
       y2="-44.835"
       gradientTransform="matrix(1,0,0,1.1,16.669,62.435)"
       gradientUnits="userSpaceOnUse"
       xlink:href="#linearGradient992" />
    <clipPath
       clipPathUnits="userSpaceOnUse"
       id="clipPath38">
      <rect
         x="0.97311002"
         y="4.6963"
         width="14.987"
         height="9.9216995"
         ry="0.29919001"
         fill="#fffffc"
         id="rect40"
         style="display:none;opacity:0.85;fill:#f2f2f2;stroke-width:0.999999" />
      <path
         id="lpe_path-effect42"
         style="opacity:0.85;fill:#f2f2f2;stroke-width:0.999999"
         class="powerclip"
         d="M -4.4709,-2.221974 H 21.40339 V 20.0813 H -4.4709 Z M 1.2723,4.6963 c -0.1657512,0 -0.29918998,0.1334388 -0.29918998,0.29919 v 9.32332 c 0,0.165751 0.13343878,0.29919 0.29918998,0.29919 h 14.38862 c 0.165752,0 0.29919,-0.133439 0.29919,-0.29919 V 4.99549 c 0,-0.1657512 -0.133438,-0.29919 -0.29919,-0.29919 z" />
    </clipPath>
  </defs>
  <metadata
     id="metadata20">
    <rdf:RDF>
      <cc:Work
         rdf:about="">
        <dc:format>image/svg+xml</dc:format>
        <dc:type
           rdf:resource="http://purl.org/dc/dcmitype/StillImage" />
      </cc:Work>
    </rdf:RDF>
  </metadata>
  <g
     fill="#5e4aa6"
     stroke-width=".26458"
     id="g30">
    <circle
       cx="-330.35"
       cy="-328.38"
       r="0"
       id="circle22" />
    <circle
       cx="-312.11"
       cy="-326.25"
       r="0"
       id="circle24" />
    <circle
       cx="-306.02"
       cy="-333.07"
       r="0"
       id="circle26" />
    <circle
       cx="-308.84"
       cy="-326.01"
       r="0"
       id="circle28" />
  </g>
  <g
     transform="translate(.000295 -.00032978)"
     fill="#5e4aa6"
     stroke-width=".26458"
     id="g42">
    <circle
       cx="-330.35"
       cy="-328.38"
       r="0"
       id="circle32" />
    <circle
       cx="-312.11"
       cy="-326.25"
       r="0"
       id="circle34" />
    <circle
       cx="-306.02"
       cy="-333.07"
       r="0"
       id="circle36" />
    <circle
       cx="-308.84"
       cy="-326.01"
       r="0"
       id="circle38" />
    <circle
       cx="-328.8"
       cy="-330.45"
       r="0"
       id="circle40" />
  </g>
  <g
     fill="#474747"
     id="g8"
     transform="matrix(0.94803125,0,0,0.94803125,0.90905643,0.95283364)"
     style="fill:#ffffff">
    <path
       d="m 14,0 c 1.2,0 2,0.798 2,2 V 6 H 14 V 2.25 C 14,2.126 13.943,2 13.812,2 H 2.188 C 2.056,2 2,2.126 2,2.25 V 14 C 0.8,14 0,13.077 0,11.875 V 2 C 0,0.798 0.8,0 2,0 Z"
       color="#bebebe"
       overflow="visible"
       id="path2"
       style="fill:#ffffff" />
    <path
       d="M 7.25,6 C 6.779,6 6.507,6.542 6.5,7 V 8 H 4 C 3.531,8.065 3,8.542 3,9 v 6 c 0,0.458 0.527,1 1,1 h 10 c 0.473,0 1,-0.542 1,-1 V 9 C 15,8.542 14.473,8 14,8 H 11.5 V 7 C 11.5,6.542 11.159,6 10.687,6 Z M 9,9 a 3,3 0 1 1 0,6 3,3 0 0 1 0,-6 z"
       color="#bebebe"
       overflow="visible"
       id="path4"
       style="fill:#ffffff" />
    <path
       d="m 11,12 a 2,2 0 0 1 -2,2 2,2 0 0 1 -2,-2 2,2 0 0 1 2,-2 2,2 0 0 1 2,2 z"
       id="path6"
       style="fill:#ffffff" />
  </g>
</svg>
