<?xml version="1.0" encoding="UTF-8" standalone="no"?>
<svg
   width="64"
   height="64"
   version="1.1"
   id="svg12"
   sodipodi:docname="preferences-calendar-and-tasks.svg"
   inkscape:version="1.1.1 (1:1.1+202109281949+c3084ef5ed)"
   xmlns:inkscape="http://www.inkscape.org/namespaces/inkscape"
   xmlns:sodipodi="http://sodipodi.sourceforge.net/DTD/sodipodi-0.dtd"
   xmlns="http://www.w3.org/2000/svg"
   xmlns:svg="http://www.w3.org/2000/svg"
   xmlns:rdf="http://www.w3.org/1999/02/22-rdf-syntax-ns#"
   xmlns:cc="http://creativecommons.org/ns#"
   xmlns:dc="http://purl.org/dc/elements/1.1/">
  <metadata
     id="metadata18">
    <rdf:RDF>
      <cc:Work
         rdf:about="">
        <dc:format>image/svg+xml</dc:format>
        <dc:type
           rdf:resource="http://purl.org/dc/dcmitype/StillImage" />
      </cc:Work>
    </rdf:RDF>
  </metadata>
  <defs
     id="defs16">
    <inkscape:path-effect
       effect="powerclip"
       id="path-effect6352"
       is_visible="true"
       lpeversion="1"
       inverse="true"
       flatten="false"
       hide_clip="false"
       message="Use fill-rule evenodd on &lt;b&gt;fill and stroke&lt;/b&gt; dialog if no flatten result after convert clip to paths." />
    <inkscape:path-effect
       effect="powerclip"
       id="path-effect300"
       is_visible="true"
       lpeversion="1"
       inverse="true"
       flatten="false"
       hide_clip="false"
       message="Use fill-rule evenodd on &lt;b&gt;fill and stroke&lt;/b&gt; dialog if no flatten result after convert clip to paths." />
    <clipPath
       clipPathUnits="userSpaceOnUse"
       id="clipPath296">
      <path
         style="display:block;fill:#ffffff;stroke-width:1.06009"
         d="m 11.318221,14.428922 c -0.870151,0 -1.5706693,0.717995 -1.5706693,1.609855 v 18.245025 c 0,0.891864 0.7005183,1.609856 1.5706693,1.609856 H 24.93065 c 0.870146,0 1.570664,-0.717992 1.570664,-1.609856 V 19.795107 l -5.235549,-5.366185 z"
         id="path298" />
    </clipPath>
    <clipPath
       clipPathUnits="userSpaceOnUse"
       id="clipPath6348">
      <rect
         style="display:none;opacity:1;fill:#ffffff;fill-opacity:1;stroke:none;stroke-width:0.81953;stroke-opacity:1"
         id="rect6350"
         width="49.927536"
         height="8.2595568"
         x="7.2316799"
         y="44.626305"
         ry="4.1297784"
         d="m 11.361458,44.626305 h 41.66798 c 2.287897,0 4.129778,1.841881 4.129778,4.129778 0,2.287897 -1.841881,4.129778 -4.129778,4.129778 h -41.66798 c -2.2878969,0 -4.1297781,-1.841881 -4.1297781,-4.129778 0,-2.287897 1.8418812,-4.129778 4.1297781,-4.129778 z" />
      <path
         id="lpe_path-effect6352"
         style="opacity:1;fill:#ffffff;fill-opacity:1;stroke:none;stroke-width:0.81953;stroke-opacity:1"
         class="powerclip"
         d="M -1.0031439,4.813737 H 65.055407 v 58.1581 H -1.0031439 Z M 11.361458,44.626305 c -2.2878969,0 -4.1297781,1.841881 -4.1297781,4.129778 0,2.287897 1.8418812,4.129778 4.1297781,4.129778 h 41.66798 c 2.287897,0 4.129778,-1.841881 4.129778,-4.129778 0,-2.287897 -1.841881,-4.129778 -4.129778,-4.129778 z" />
    </clipPath>
  </defs>
  <sodipodi:namedview
     pagecolor="#ffffff"
     bordercolor="#666666"
     borderopacity="1"
     objecttolerance="10"
     gridtolerance="10"
     guidetolerance="10"
     inkscape:pageopacity="0"
     inkscape:pageshadow="2"
     inkscape:window-width="1920"
     inkscape:window-height="996"
     id="namedview14"
     showgrid="false"
     inkscape:zoom="9.1150484"
     inkscape:cx="28.633968"
     inkscape:cy="23.751931"
     inkscape:window-x="0"
     inkscape:window-y="0"
     inkscape:window-maximized="1"
     inkscape:current-layer="svg12"
     inkscape:document-rotation="0"
     inkscape:pagecheckerboard="0" />
  <path
     id="path6"
     style="fill:#ffffff"
     d="m 6.7968561,57.971837 c -1.55,0 -2.8,-1.25 -2.8,-2.8 v -4.2 H 59.996856 v 4.2 c 0,1.55 -1.25,2.8 -2.8,2.8 z m -2.7414545,-3.1581 v -42.2 c 0,-1.55 1.2496,-2.8 2.8,-2.8 H 57.255407 c 1.55,0 2.8,1.25 2.8,2.8 v 42.2 l -1,1 H 5.0554016 Z"
     clip-path="url(#clipPath6348)"
     inkscape:path-effect="#path-effect6352"
     inkscape:original-d="m 6.7968561,57.971837 c -1.55,0 -2.8,-1.25 -2.8,-2.8 v -4.2 H 59.996856 v 4.2 c 0,1.55 -1.25,2.8 -2.8,2.8 z m -2.7414545,-3.1581 v -42.2 c 0,-1.55 1.2496,-2.8 2.8,-2.8 H 57.255407 c 1.55,0 2.8,1.25 2.8,2.8 v 42.2 l -1,1 H 5.0554016 Z"
     transform="matrix(1,0,0,-1,0,65.785574)" />
  <path
     sodipodi:type="star"
     style="opacity:0;fill:#ffffff;fill-opacity:1;stroke:#e90000;stroke-opacity:1"
     id="path2180"
     inkscape:flatsided="false"
     sodipodi:sides="5"
     sodipodi:cx="14.323854"
     sodipodi:cy="37.560955"
     sodipodi:r1="13.798694"
     sodipodi:r2="6.8993468"
     sodipodi:arg1="0.77902434"
     sodipodi:arg2="1.4073429"
     inkscape:rounded="0"
     inkscape:randomized="0"
     d="M 24.142996,47.255717 15.446561,44.368342 8.1378697,49.89536 8.1965804,40.732311 0.68156406,35.489275 9.4142838,32.713574 12.07844,23.946181 l 5.338407,7.447572 9.161555,-0.17551 -5.433402,7.378552 z"
     inkscape:transform-center-x="0.69387123"
     inkscape:transform-center-y="-0.64018447" />
</svg>
